<svg xmlns="http://www.w3.org/2000/svg" viewBox="0 0 1200 760"><defs><linearGradient id="g" x1="0" y1="0" x2="1" y2="1"><stop stop-color="#dff4ff"/><stop offset=".55" stop-color="#8fc7e2"/><stop offset="1" stop-color="#386f8d"/></linearGradient><linearGradient id="b" x1="0" y1="0" x2="0" y2="1"><stop stop-color="#f9fdff"/><stop offset="1" stop-color="#a6c9d9"/></linearGradient></defs><rect width="1200" height="760" fill="url(#g)"/><circle cx="980" cy="130" r="120" fill="#fff" opacity=".35"/><path d="M0 610 Q280 480 540 590 T1200 540 V760 H0Z" fill="#5c899e" opacity=".65"/><g transform="translate(150 150)"><rect x="0" y="120" width="850" height="390" rx="10" fill="url(#b)"/><path d="M-25 135 L420 -20 875 135Z" fill="#0e3d5c" opacity=".92"/><path d="M350 65 L420 -10 490 65Z" fill="#e8f7fd"/><g fill="#4385a6" opacity=".8"><rect x="45" y="170" width="92" height="82"/><rect x="165" y="170" width="92" height="82"/><rect x="285" y="170" width="92" height="82"/><rect x="505" y="170" width="92" height="82"/><rect x="625" y="170" width="92" height="82"/><rect x="745" y="170" width="60" height="82"/><rect x="45" y="285" width="92" height="82"/><rect x="165" y="285" width="92" height="82"/><rect x="285" y="285" width="92" height="82"/><rect x="505" y="285" width="92" height="82"/><rect x="625" y="285" width="92" height="82"/><rect x="745" y="285" width="60" height="82"/></g><rect x="360" y="365" width="125" height="145" rx="5" fill="#0e3d5c"/><circle cx="423" cy="432" r="6" fill="#d9eff8"/></g><text x="56" y="690" font-family="Arial,sans-serif" font-size="28" font-weight="700" fill="#fff" letter-spacing="5">ARMAX PORTFÖY</text></svg>