<svg xmlns="http://www.w3.org/2000/svg" viewBox="0 0 1200 760"><defs><linearGradient id="g" x1="0" y1="0" x2="1" y2="1"><stop stop-color="#edf8fc"/><stop offset=".55" stop-color="#9ec9dc"/><stop offset="1" stop-color="#4e7890"/></linearGradient></defs><rect width="1200" height="760" fill="url(#g)"/><rect y="520" width="1200" height="240" fill="#dcecf2"/><path d="M0 520 L240 390 490 520 720 350 1200 520V760H0Z" fill="#7ba7b9" opacity=".55"/><g transform="translate(130 120)"><rect width="940" height="430" rx="12" fill="#f8fcfe"/><rect x="0" y="0" width="940" height="70" rx="12" fill="#0d3855"/><g fill="#4e91b1"><rect x="40" y="105" width="190" height="140"/><rect x="265" y="105" width="190" height="140"/><rect x="490" y="105" width="190" height="140"/><rect x="715" y="105" width="185" height="140"/><rect x="40" y="280" width="190" height="140"/><rect x="265" y="280" width="190" height="140"/><rect x="490" y="280" width="190" height="140"/><rect x="715" y="280" width="185" height="140"/></g><g fill="#fff" opacity=".55"><rect x="55" y="120" width="160" height="12"/><rect x="280" y="120" width="160" height="12"/><rect x="505" y="120" width="160" height="12"/><rect x="730" y="120" width="155" height="12"/></g></g><text x="55" y="700" font-family="Arial,sans-serif" font-size="28" font-weight="700" fill="#fff" letter-spacing="5">BAĞLARBAŞI • ARMAX</text></svg>